<svg width="200" height="145" viewBox="0 0 200 145" fill="none" xmlns="http://www.w3.org/2000/svg">
<path d="M15.3526 72.6045C15.3526 73.6412 15.1989 74.5664 14.8915 75.3801C14.5781 76.1938 14.126 76.884 13.5353 77.4506C12.9446 78.0171 12.2244 78.4511 11.3745 78.7525C10.5186 79.0478 9.55118 79.1955 8.47227 79.1955L8.45418 79.1955C7.03171 79.1955 5.80813 78.9363 4.78347 78.418C3.7588 77.8936 2.97222 77.1492 2.42372 76.1848C1.87522 75.2144 1.60097 74.0601 1.60097 72.722C1.60097 71.6311 1.79988 70.6516 2.19769 69.7837C2.5955 68.9097 3.14098 68.2045 3.83414 67.668C4.5273 67.1255 5.32895 66.8091 6.2391 66.7187L6.32951 66.7097L6.32951 70.4798L6.24814 70.4979C5.79005 70.6004 5.42238 70.8596 5.14511 71.2754C4.86785 71.6853 4.72922 72.1675 4.72922 72.722C4.72922 73.2645 4.87388 73.7286 5.1632 74.1144C5.45251 74.4941 5.87142 74.7864 6.41992 74.9914C6.96842 75.1903 7.62842 75.2897 8.39994 75.2897L8.41802 75.2897C9.00871 75.2897 9.53913 75.2264 10.0093 75.0999C10.4794 74.9673 10.8802 74.7804 11.2117 74.5393C11.5372 74.2922 11.7874 73.9999 11.9622 73.6623C12.137 73.3188 12.2244 72.936 12.2244 72.5141C12.2244 72.0982 12.152 71.7275 12.0074 71.402C11.8627 71.0765 11.6578 70.8174 11.3926 70.6245C11.1274 70.4256 10.8169 70.308 10.4613 70.2719L10.2805 70.2538L10.2805 72.2609L7.73089 72.2609L7.73089 66.565L9.44871 66.565C10.3769 66.565 11.2057 66.7006 11.935 66.9718C12.6583 67.2431 13.2761 67.6409 13.7885 68.1653C14.2948 68.6836 14.6836 69.3165 14.9548 70.0639C15.22 70.8113 15.3526 71.6582 15.3526 72.6045ZM32 91.2253L18.9536 91.2253L18.9536 82.0214L21.9914 82.0214L21.9914 87.3919L24.107 87.3919L24.107 82.356L26.8556 82.356L26.8556 87.3919L28.9622 87.3919L28.9622 82.0214L32 82.0214L32 91.2253ZM32 79.8465L18.9536 79.8465L18.9536 76.8539L26.8013 70.9138L25.4451 73.6442L25.4451 71.7727L18.9536 71.7727L18.9536 68.1472L32 68.1472L32 71.1037L24.0438 77.0708L25.409 74.3404L25.409 76.2119L32 76.2119L32 79.8465ZM32.3526 59.9147C32.3526 61.2528 32.0784 62.407 31.5299 63.3774C30.9753 64.3478 30.1857 65.0953 29.1611 65.6196C28.1304 66.138 26.9038 66.3972 25.4813 66.3972L25.4632 66.3972C24.0407 66.3972 22.8172 66.138 21.7925 65.6196C20.7618 65.0953 19.9722 64.3509 19.4237 63.3865C18.8752 62.4161 18.601 61.2588 18.601 59.9147C18.601 58.7574 18.83 57.7327 19.2881 56.8407C19.7402 55.9486 20.361 55.2404 21.1506 54.716C21.9342 54.1916 22.8262 53.9083 23.8268 53.8661L24.0347 53.8571L24.0347 57.5278L23.9262 57.5368C23.5043 57.573 23.1276 57.6966 22.7961 57.9075C22.4646 58.1185 22.2054 58.3957 22.0185 58.7393C21.8257 59.0829 21.7292 59.4747 21.7292 59.9147C21.7292 60.4451 21.8799 60.9032 22.1813 61.2889C22.4766 61.6747 22.9016 61.973 23.4561 62.184C24.0106 62.3889 24.6766 62.4914 25.4542 62.4914L25.4723 62.4914C26.2498 62.4914 26.9189 62.3889 27.4794 62.184C28.04 61.973 28.4709 61.6747 28.7723 61.2889C29.0737 60.9032 29.2244 60.4421 29.2244 59.9056C29.2244 59.4656 29.1339 59.0799 28.9531 58.7483C28.7663 58.4108 28.5101 58.1396 28.1846 57.9346C27.8531 57.7237 27.4704 57.5911 27.0364 57.5368L26.9098 57.5187L26.9098 53.848L27.0906 53.8571C28.1153 53.8993 29.0224 54.1795 29.812 54.6979C30.6016 55.2163 31.2225 55.9215 31.6745 56.8135C32.1266 57.7056 32.3526 58.7393 32.3526 59.9147ZM48 85.8071L34.9536 81.5488L34.9536 78.1312L38.0637 78.1312L38.0637 79.2342L48 81.7748L48 85.8071ZM45.4052 83.131L42.7019 82.2992L42.7019 76.124L45.4052 75.2923L45.4052 83.131ZM48 76.5128L38.0637 79.0534L34.9536 79.0534L34.9536 76.7388L48 72.4805L48 76.5128ZM48.3526 65.9205C48.3526 67.0477 48.1959 68.0241 47.8825 68.8499C47.563 69.6696 47.1079 70.3115 46.5172 70.7756C45.9205 71.2337 45.2033 71.4839 44.3654 71.5261L44.1846 71.5351L44.1846 67.9006L44.2569 67.8915C44.4739 67.8614 44.6698 67.7619 44.8446 67.5932C45.0194 67.4184 45.1581 67.1863 45.2605 66.897C45.363 66.6016 45.4142 66.2611 45.4142 65.8753C45.4142 65.4896 45.366 65.1611 45.2696 64.8898C45.1671 64.6126 45.0285 64.3986 44.8537 64.2479C44.6728 64.0972 44.4709 64.0219 44.2479 64.0219L44.2389 64.0219C43.9254 64.0219 43.6964 64.1696 43.5517 64.4649C43.4011 64.7602 43.2594 65.2696 43.1268 65.9929L42.8827 67.3038C42.6235 68.6962 42.1654 69.7148 41.5084 70.3598C40.8454 70.9987 39.9955 71.3181 38.9588 71.3181L38.9498 71.3181C38.0637 71.3181 37.2952 71.0861 36.6443 70.6219C35.9933 70.1578 35.49 69.5249 35.1344 68.7233C34.7788 67.9156 34.601 66.9964 34.601 65.9657C34.601 64.8024 34.7728 63.829 35.1163 63.0454C35.4599 62.2619 35.9421 61.6591 36.5629 61.2372C37.1777 60.8153 37.8889 60.5682 38.6966 60.4958L38.8051 60.4868L38.8051 64.0038L38.7057 64.0219C38.4646 64.0641 38.2596 64.1696 38.0909 64.3383C37.9161 64.5011 37.7805 64.7181 37.684 64.9893C37.5876 65.2605 37.5394 65.5709 37.5394 65.9205C37.5394 66.2701 37.5876 66.5655 37.684 66.8066C37.7744 67.0416 37.901 67.2194 38.0637 67.34C38.2205 67.4605 38.3983 67.5208 38.5972 67.5208L38.6062 67.5208C38.9317 67.5208 39.1818 67.3731 39.3566 67.0778C39.5314 66.7825 39.6791 66.3093 39.7996 65.6583L40.0438 64.3474C40.2186 63.4131 40.4657 62.6416 40.7851 62.0328C41.1046 61.4241 41.5175 60.972 42.0238 60.6766C42.5241 60.3753 43.1389 60.2246 43.8682 60.2246L43.8772 60.2246C44.7874 60.2246 45.577 60.4506 46.246 60.9027C46.9151 61.3487 47.4334 61.9967 47.8011 62.8465C48.1688 63.6964 48.3526 64.7211 48.3526 65.9205ZM65 74.8015L54.9914 74.8015L54.9914 78.4089L51.9536 78.4089L51.9536 67.3516L54.9914 67.3516L54.9914 70.968L65 70.968L65 74.8015ZM82.3526 85.3305C82.3526 86.3672 82.1989 87.2924 81.8915 88.1061C81.5781 88.9198 81.126 89.61 80.5353 90.1766C79.9446 90.7431 79.2244 91.1771 78.3745 91.4785C77.5186 91.7738 76.5512 91.9215 75.4723 91.9215L75.4542 91.9215C74.0317 91.9215 72.8081 91.6623 71.7835 91.144C70.7588 90.6196 69.9722 89.8752 69.4237 88.9108C68.8752 87.9404 68.601 86.7861 68.601 85.448C68.601 84.3571 68.7999 83.3776 69.1977 82.5096C69.5955 81.6357 70.141 80.9305 70.8341 80.394C71.5273 79.8515 72.329 79.5351 73.2391 79.4447L73.3295 79.4356L73.3295 83.2058L73.2481 83.2239C72.7901 83.3264 72.4224 83.5855 72.1451 84.0014C71.8679 84.4113 71.7292 84.8935 71.7292 85.448C71.7292 85.9905 71.8739 86.4546 72.1632 86.8404C72.4525 87.2201 72.8714 87.5124 73.4199 87.7174C73.9684 87.9163 74.6284 88.0157 75.3999 88.0157L75.418 88.0157C76.0087 88.0157 76.5391 87.9524 77.0093 87.8259C77.4794 87.6933 77.8802 87.5064 78.2117 87.2653C78.5372 87.0182 78.7874 86.7258 78.9622 86.3883C79.137 86.0447 79.2244 85.662 79.2244 85.2401C79.2244 84.8242 79.152 84.4535 79.0074 84.128C78.8627 83.8025 78.6578 83.5434 78.3926 83.3505C78.1274 83.1516 77.8169 83.034 77.4613 82.9979L77.2805 82.9798L77.2805 84.9869L74.7309 84.9869L74.7309 79.291L76.4487 79.291C77.3769 79.291 78.2057 79.4266 78.935 79.6978C79.6583 79.9691 80.2761 80.3669 80.7885 80.8913C81.2948 81.4096 81.6836 82.0425 81.9548 82.7899C82.22 83.5373 82.3526 84.3842 82.3526 85.3305ZM82 77.55L68.9536 77.55L68.9536 68.3461L71.9914 68.3461L71.9914 73.7166L74.107 73.7166L74.107 68.6806L76.8556 68.6806L76.8556 73.7166L78.9622 73.7166L78.9622 68.3461L82 68.3461L82 77.55ZM82 66.1712L68.9536 66.1712L68.9536 63.1785L76.8013 57.2385L75.4451 59.9689L75.4451 58.0974L68.9536 58.0974L68.9536 54.4719L82 54.4719L82 57.4283L74.0438 63.3955L75.409 60.6651L75.409 62.5366L82 62.5366L82 66.1712ZM98.3526 111.216C98.3526 112.253 98.1989 113.178 97.8915 113.992C97.5781 114.806 97.126 115.496 96.5353 116.063C95.9446 116.629 95.2244 117.063 94.3745 117.364C93.5186 117.66 92.5512 117.807 91.4723 117.807L91.4542 117.807C90.0317 117.807 88.8081 117.548 87.7835 117.03C86.7588 116.506 85.9722 115.761 85.4237 114.797C84.8752 113.826 84.601 112.672 84.601 111.334C84.601 110.243 84.7999 109.264 85.1977 108.396C85.5955 107.522 86.141 106.816 86.8341 106.28C87.5273 105.738 88.329 105.421 89.2391 105.331L89.3295 105.322L89.3295 109.092L89.2481 109.11C88.7901 109.212 88.4224 109.472 88.1451 109.887C87.8679 110.297 87.7292 110.779 87.7292 111.334C87.7292 111.876 87.8739 112.341 88.1632 112.726C88.4525 113.106 88.8714 113.398 89.4199 113.603C89.9684 113.802 90.6284 113.902 91.3999 113.902L91.418 113.902C92.0087 113.902 92.5391 113.838 93.0093 113.712C93.4794 113.579 93.8802 113.392 94.2117 113.151C94.5372 112.904 94.7874 112.612 94.9622 112.274C95.137 111.931 95.2244 111.548 95.2244 111.126C95.2244 110.71 95.152 110.339 95.0074 110.014C94.8627 109.689 94.6578 109.429 94.3926 109.236C94.1274 109.038 93.8169 108.92 93.4613 108.884L93.2805 108.866L93.2805 110.873L90.7309 110.873L90.7309 105.177L92.4487 105.177C93.3769 105.177 94.2057 105.313 94.935 105.584C95.6583 105.855 96.2761 106.253 96.7885 106.777C97.2948 107.296 97.6836 107.928 97.9548 108.676C98.22 109.423 98.3526 110.27 98.3526 111.216ZM98 103.436L84.9536 103.436L84.9536 94.2321L87.9914 94.2321L87.9914 99.6025L90.107 99.6025L90.107 94.5666L92.8556 94.5666L92.8556 99.6025L94.9622 99.6025L94.9622 94.2321L98 94.2321L98 103.436ZM98 92.0571L84.9536 92.0571L84.9536 89.0645L92.8013 83.1244L91.4451 85.8549L91.4451 83.9834L84.9536 83.9834L84.9536 80.3578L98 80.3578L98 83.3143L90.0438 89.2815L91.409 86.5511L91.409 88.4226L98 88.4226L98 92.0571ZM98.3526 72.1253C98.3526 73.4634 98.0784 74.6177 97.5299 75.5881C96.9753 76.5585 96.1857 77.3059 95.1611 77.8303C94.1304 78.3487 92.9038 78.6078 91.4813 78.6078L91.4632 78.6078C90.0407 78.6078 88.8172 78.3487 87.7925 77.8303C86.7618 77.3059 85.9722 76.5615 85.4237 75.5971C84.8752 74.6267 84.601 73.4694 84.601 72.1253C84.601 70.968 84.83 69.9434 85.2881 69.0513C85.7402 68.1592 86.361 67.451 87.1506 66.9266C87.9342 66.4022 88.8262 66.119 89.8268 66.0768L90.0347 66.0677L90.0347 69.7384L89.9262 69.7475C89.5043 69.7836 89.1276 69.9072 88.7961 70.1182C88.4646 70.3291 88.2054 70.6064 88.0185 70.95C87.8257 71.2935 87.7292 71.6853 87.7292 72.1253C87.7292 72.6557 87.8799 73.1138 88.1813 73.4996C88.4766 73.8853 88.9016 74.1837 89.4561 74.3946C90.0106 74.5996 90.6766 74.702 91.4542 74.702L91.4723 74.702C92.2498 74.702 92.9189 74.5996 93.4794 74.3946C94.04 74.1837 94.4709 73.8853 94.7723 73.4996C95.0737 73.1138 95.2244 72.6527 95.2244 72.1163C95.2244 71.6763 95.1339 71.2905 94.9531 70.959C94.7663 70.6215 94.5101 70.3502 94.1846 70.1453C93.8531 69.9343 93.4704 69.8017 93.0364 69.7475L92.9098 69.7294L92.9098 66.0587L93.0906 66.0677C94.1153 66.1099 95.0224 66.3902 95.812 66.9086C96.6016 67.4269 97.2225 68.1321 97.6745 69.0242C98.1266 69.9163 98.3526 70.95 98.3526 72.1253ZM98 65.6829L84.9536 61.4245L84.9536 58.007L88.0637 58.007L88.0637 59.11L98 61.6506L98 65.6829ZM95.4052 63.0067L92.7019 62.175L92.7019 55.9998L95.4052 55.168L95.4052 63.0067ZM98 56.3886L88.0637 58.9292L84.9536 58.9292L84.9536 56.6146L98 52.3562L98 56.3886ZM98.3526 45.7963C98.3526 46.9234 98.1959 47.8999 97.8825 48.7257C97.563 49.5454 97.1079 50.1873 96.5172 50.6514C95.9205 51.1095 95.2033 51.3597 94.3654 51.4018L94.1846 51.4109L94.1846 47.7763L94.2569 47.7673C94.4739 47.7372 94.6698 47.6377 94.8446 47.4689C95.0194 47.2941 95.1581 47.0621 95.2605 46.7728C95.363 46.4774 95.4142 46.1369 95.4142 45.7511C95.4142 45.3654 95.366 45.0369 95.2696 44.7656C95.1671 44.4884 95.0285 44.2744 94.8537 44.1237C94.6728 43.973 94.4709 43.8977 94.2479 43.8977L94.2389 43.8977C93.9254 43.8977 93.6964 44.0453 93.5517 44.3407C93.401 44.636 93.2594 45.1454 93.1268 45.8686L92.8827 47.1796C92.6235 48.572 92.1654 49.5906 91.5084 50.2355C90.8454 50.8744 89.9955 51.1939 88.9588 51.1939L88.9498 51.1939C88.0637 51.1939 87.2952 50.9618 86.6443 50.4977C85.9933 50.0336 85.49 49.4007 85.1344 48.5991C84.7788 47.7914 84.601 46.8722 84.601 45.8415C84.601 44.6782 84.7728 43.7048 85.1163 42.9212C85.4599 42.1377 85.9421 41.5349 86.5629 41.113C87.1777 40.6911 87.8889 40.4439 88.6966 40.3716L88.8051 40.3626L88.8051 43.8796L88.7057 43.8977C88.4646 43.9399 88.2596 44.0453 88.0909 44.2141C87.9161 44.3769 87.7805 44.5938 87.684 44.8651C87.5876 45.1363 87.5394 45.4467 87.5394 45.7963C87.5394 46.1459 87.5876 46.4413 87.684 46.6824C87.7744 46.9174 87.901 47.0952 88.0637 47.2158C88.2205 47.3363 88.3983 47.3966 88.5972 47.3966L88.6062 47.3966C88.9317 47.3966 89.1818 47.2489 89.3566 46.9536C89.5314 46.6582 89.6791 46.1851 89.7996 45.5341L90.0438 44.2232C90.2186 43.2889 90.4657 42.5174 90.7851 41.9086C91.1046 41.2998 91.5175 40.8478 92.0238 40.5524C92.5241 40.2511 93.1389 40.1004 93.8682 40.1004L93.8772 40.1004C94.7874 40.1004 95.577 40.3264 96.246 40.7785C96.9151 41.2245 97.4334 41.8724 97.8011 42.7223C98.1688 43.5722 98.3526 44.5969 98.3526 45.7963ZM98 35.3577L87.9914 35.3577L87.9914 38.9652L84.9536 38.9652L84.9536 27.9078L87.9914 27.9078L87.9914 31.5243L98 31.5243L98 35.3577ZM115 104.277L101.954 104.277L101.954 95.0729L104.991 95.0729L104.991 100.443L107.107 100.443L107.107 95.4074L109.856 95.4074L109.856 100.443L111.962 100.443L111.962 95.0729L115 95.0729L115 104.277ZM115 92.898L101.954 92.898L101.954 89.9053L109.801 83.9653L108.445 86.6957L108.445 84.8242L101.954 84.8242L101.954 81.1987L115 81.1987L115 84.1551L107.044 90.1223L108.409 87.3919L108.409 89.2634L115 89.2634L115 92.898ZM115.353 72.9661C115.353 74.3042 115.078 75.4585 114.53 76.4289C113.975 77.3993 113.186 78.1467 112.161 78.6711C111.13 79.1895 109.904 79.4487 108.481 79.4487L108.463 79.4487C107.041 79.4487 105.817 79.1895 104.793 78.6711C103.762 78.1467 102.972 77.4023 102.424 76.438C101.875 75.4675 101.601 74.3103 101.601 72.9661C101.601 71.8089 101.83 70.7842 102.288 69.8921C102.74 69.0001 103.361 68.2918 104.151 67.7675C104.934 67.2431 105.826 66.9598 106.827 66.9176L107.035 66.9085L107.035 70.5793L106.926 70.5883C106.504 70.6245 106.128 70.748 105.796 70.959C105.465 71.17 105.205 71.4472 105.019 71.7908C104.826 72.1344 104.729 72.5261 104.729 72.9661C104.729 73.4966 104.88 73.9546 105.181 74.3404C105.477 74.7262 105.902 75.0245 106.456 75.2355C107.011 75.4404 107.677 75.5429 108.454 75.5429L108.472 75.5429C109.25 75.5429 109.919 75.4404 110.479 75.2355C111.04 75.0245 111.471 74.7262 111.772 74.3404C112.074 73.9546 112.224 73.4935 112.224 72.9571C112.224 72.5171 112.134 72.1313 111.953 71.7998C111.766 71.4623 111.51 71.1911 111.185 70.9861C110.853 70.7752 110.47 70.6426 110.036 70.5883L109.91 70.5702L109.91 66.8995L110.091 66.9085C111.115 66.9507 112.022 67.231 112.812 67.7494C113.602 68.2677 114.222 68.973 114.675 69.865C115.127 70.7571 115.353 71.7908 115.353 72.9661ZM115 66.5238L101.954 62.2654L101.954 58.8478L105.064 58.8478L105.064 59.9508L115 62.4914L115 66.5238ZM112.405 63.8476L109.702 63.0158L109.702 56.8407L112.405 56.0089L112.405 63.8476ZM115 57.2294L105.064 59.77L101.954 59.77L101.954 57.4555L115 53.1971L115 57.2294ZM115.353 46.6372C115.353 47.7643 115.196 48.7407 114.882 49.5665C114.563 50.3862 114.108 51.0281 113.517 51.4923C112.921 51.9503 112.203 52.2005 111.365 52.2427L111.185 52.2517L111.185 48.6172L111.257 48.6081C111.474 48.578 111.67 48.4785 111.845 48.3098C112.019 48.135 112.158 47.9029 112.261 47.6136C112.363 47.3183 112.414 46.9777 112.414 46.5919C112.414 46.2062 112.366 45.8777 112.27 45.6065C112.167 45.3292 112.028 45.1152 111.854 44.9645C111.673 44.8138 111.471 44.7385 111.248 44.7385L111.239 44.7385C110.925 44.7385 110.696 44.8862 110.552 45.1815C110.401 45.4769 110.259 45.9862 110.127 46.7095L109.883 48.0205C109.624 49.4128 109.165 50.4314 108.508 51.0764C107.845 51.7153 106.996 52.0347 105.959 52.0347L105.95 52.0347C105.064 52.0347 104.295 51.8027 103.644 51.3386C102.993 50.8745 102.49 50.2416 102.134 49.4399C101.779 48.6322 101.601 47.7131 101.601 46.6824C101.601 45.5191 101.773 44.5456 102.116 43.7621C102.46 42.9785 102.942 42.3757 103.563 41.9538C104.178 41.5319 104.889 41.2848 105.697 41.2124L105.805 41.2034L105.805 44.7204L105.706 44.7385C105.465 44.7807 105.26 44.8862 105.091 45.0549C104.916 45.2177 104.78 45.4347 104.684 45.7059C104.588 45.9771 104.539 46.2876 104.539 46.6372C104.539 46.9867 104.588 47.2821 104.684 47.5232C104.774 47.7583 104.901 47.9361 105.064 48.0566C105.22 48.1772 105.398 48.2374 105.597 48.2374L105.606 48.2374C105.932 48.2374 106.182 48.0898 106.357 47.7944C106.531 47.4991 106.679 47.0259 106.8 46.375L107.044 45.064C107.219 44.1297 107.466 43.3582 107.785 42.7494C108.105 42.1407 108.517 41.6886 109.024 41.3933C109.524 41.0919 110.139 40.9412 110.868 40.9412L110.877 40.9412C111.787 40.9412 112.577 41.1672 113.246 41.6193C113.915 42.0653 114.433 42.7133 114.801 43.5632C115.169 44.413 115.353 45.4377 115.353 46.6372ZM132.353 137.428C132.353 138.465 132.199 139.39 131.892 140.204C131.578 141.017 131.126 141.707 130.535 142.274C129.945 142.841 129.224 143.275 128.374 143.576C127.519 143.871 126.551 144.019 125.472 144.019L125.454 144.019C124.032 144.019 122.808 143.76 121.783 143.241C120.759 142.717 119.972 141.973 119.424 141.008C118.875 140.038 118.601 138.884 118.601 137.545C118.601 136.454 118.8 135.475 119.198 134.607C119.596 133.733 120.141 133.028 120.834 132.491C121.527 131.949 122.329 131.633 123.239 131.542L123.33 131.533L123.33 135.303L123.248 135.321C122.79 135.424 122.422 135.683 122.145 136.099C121.868 136.509 121.729 136.991 121.729 137.545C121.729 138.088 121.874 138.552 122.163 138.938C122.453 139.318 122.871 139.61 123.42 139.815C123.968 140.014 124.628 140.113 125.4 140.113L125.418 140.113C126.009 140.113 126.539 140.05 127.009 139.923C127.479 139.791 127.88 139.604 128.212 139.363C128.537 139.116 128.787 138.823 128.962 138.486C129.137 138.142 129.224 137.759 129.224 137.338C129.224 136.922 129.152 136.551 129.007 136.225C128.863 135.9 128.658 135.641 128.393 135.448C128.127 135.249 127.817 135.131 127.461 135.095L127.281 135.077L127.281 137.084L124.731 137.084L124.731 131.388L126.449 131.388C127.377 131.388 128.206 131.524 128.935 131.795C129.658 132.067 130.276 132.464 130.788 132.989C131.295 133.507 131.684 134.14 131.955 134.887C132.22 135.635 132.353 136.482 132.353 137.428ZM132 129.647L118.954 129.647L118.954 120.444L121.991 120.444L121.991 125.814L124.107 125.814L124.107 120.778L126.856 120.778L126.856 125.814L128.962 125.814L128.962 120.444L132 120.444L132 129.647ZM132 118.269L118.954 118.269L118.954 115.276L126.801 109.336L125.445 112.066L125.445 110.195L118.954 110.195L118.954 106.569L132 106.569L132 109.526L124.044 115.493L125.409 112.763L125.409 114.634L132 114.634L132 118.269ZM132.353 98.3368C132.353 99.6749 132.078 100.829 131.53 101.8C130.975 102.77 130.186 103.517 129.161 104.042C128.13 104.56 126.904 104.819 125.481 104.819L125.463 104.819C124.041 104.819 122.817 104.56 121.793 104.042C120.762 103.517 119.972 102.773 119.424 101.809C118.875 100.838 118.601 99.6809 118.601 98.3368C118.601 97.1795 118.83 96.1548 119.288 95.2628C119.74 94.3707 120.361 93.6625 121.151 93.1381C121.934 92.6137 122.826 92.3304 123.827 92.2882L124.035 92.2792L124.035 95.9499L123.926 95.9589C123.504 95.9951 123.128 96.1187 122.796 96.3296C122.465 96.5406 122.205 96.8178 122.019 97.1614C121.826 97.505 121.729 97.8968 121.729 98.3368C121.729 98.8672 121.88 99.3253 122.181 99.711C122.477 100.097 122.902 100.395 123.456 100.606C124.011 100.811 124.677 100.914 125.454 100.914L125.472 100.914C126.25 100.914 126.919 100.811 127.479 100.606C128.04 100.395 128.471 100.097 128.772 99.711C129.074 99.3253 129.224 98.8642 129.224 98.3277C129.224 97.8877 129.134 97.502 128.953 97.1705C128.766 96.8329 128.51 96.5617 128.185 96.3567C127.853 96.1458 127.47 96.0132 127.036 95.9589L126.91 95.9409L126.91 92.2701L127.091 92.2792C128.115 92.3214 129.022 92.6016 129.812 93.12C130.602 93.6384 131.222 94.3436 131.675 95.2356C132.127 96.1277 132.353 97.1614 132.353 98.3368ZM132 91.8944L118.954 87.636L118.954 84.2184L122.064 84.2184L122.064 85.3214L132 87.862L132 91.8944ZM129.405 89.2182L126.702 88.3864L126.702 82.2113L129.405 81.3795L129.405 89.2182ZM132 82.6001L122.064 85.1406L118.954 85.1406L118.954 82.8261L132 78.5677L132 82.6001ZM132.353 72.0078C132.353 73.1349 132.196 74.1114 131.882 74.9371C131.563 75.7568 131.108 76.3988 130.517 76.8629C129.921 77.321 129.203 77.5711 128.365 77.6133L128.185 77.6223L128.185 73.9878L128.257 73.9787C128.474 73.9486 128.67 73.8492 128.845 73.6804C129.019 73.5056 129.158 73.2735 129.261 72.9842C129.363 72.6889 129.414 72.3483 129.414 71.9626C129.414 71.5768 129.366 71.2483 129.27 70.9771C129.167 70.6998 129.028 70.4858 128.854 70.3352C128.673 70.1845 128.471 70.1091 128.248 70.1091L128.239 70.1091C127.925 70.1091 127.696 70.2568 127.552 70.5521C127.401 70.8475 127.259 71.3568 127.127 72.0801L126.883 73.3911C126.624 74.7834 126.165 75.8021 125.508 76.447C124.845 77.0859 123.996 77.4054 122.959 77.4054L122.95 77.4054C122.064 77.4054 121.295 77.1733 120.644 76.7092C119.993 76.2451 119.49 75.6122 119.134 74.8105C118.779 74.0029 118.601 73.0837 118.601 72.053C118.601 70.8897 118.773 69.9162 119.116 69.1327C119.46 68.3491 119.942 67.7464 120.563 67.3244C121.178 66.9025 121.889 66.6554 122.697 66.5831L122.805 66.574L122.805 70.091L122.706 70.1091C122.465 70.1513 122.26 70.2568 122.091 70.4256C121.916 70.5883 121.78 70.8053 121.684 71.0765C121.588 71.3478 121.539 71.6582 121.539 72.0078C121.539 72.3574 121.588 72.6527 121.684 72.8938C121.774 73.1289 121.901 73.3067 122.064 73.4272C122.22 73.5478 122.398 73.6081 122.597 73.6081L122.606 73.6081C122.932 73.6081 123.182 73.4604 123.357 73.165C123.531 72.8697 123.679 72.3965 123.8 71.7456L124.044 70.4346C124.219 69.5004 124.466 68.7288 124.785 68.1201C125.105 67.5113 125.517 67.0592 126.024 66.7639C126.524 66.4625 127.139 66.3118 127.868 66.3118L127.877 66.3118C128.787 66.3118 129.577 66.5379 130.246 66.9899C130.915 67.4359 131.433 68.0839 131.801 68.9338C132.169 69.7836 132.353 70.8083 132.353 72.0078ZM132 61.5692L121.991 61.5692L121.991 65.1766L118.954 65.1766L118.954 54.1193L121.991 54.1193L121.991 57.7357L132 57.7357L132 61.5692ZM132.353 46.836C132.353 47.8728 132.199 48.798 131.892 49.6117C131.578 50.4254 131.126 51.1155 130.535 51.6821C129.945 52.2487 129.224 52.6827 128.374 52.984C127.519 53.2794 126.551 53.4271 125.472 53.4271L125.454 53.4271C124.032 53.4271 122.808 53.1679 121.783 52.6495C120.759 52.1251 119.972 51.3807 119.424 50.4164C118.875 49.4459 118.601 48.2917 118.601 46.9536C118.601 45.8626 118.8 44.8832 119.198 44.0152C119.595 43.1412 120.141 42.436 120.834 41.8996C121.527 41.3571 122.329 41.0407 123.239 40.9502L123.33 40.9412L123.33 44.7114L123.248 44.7295C122.79 44.8319 122.422 45.0911 122.145 45.507C121.868 45.9169 121.729 46.3991 121.729 46.9536C121.729 47.4961 121.874 47.9602 122.163 48.3459C122.453 48.7257 122.871 49.018 123.42 49.2229C123.968 49.4218 124.628 49.5213 125.4 49.5213L125.418 49.5213C126.009 49.5213 126.539 49.458 127.009 49.3314C127.479 49.1988 127.88 49.012 128.212 48.7709C128.537 48.5237 128.787 48.2314 128.962 47.8939C129.137 47.5503 129.224 47.1676 129.224 46.7456C129.224 46.3297 129.152 45.9591 129.007 45.6336C128.863 45.3081 128.658 45.0489 128.393 44.856C128.127 44.6571 127.817 44.5396 127.461 44.5034L127.281 44.4853L127.281 46.4925L124.731 46.4925L124.731 40.7965L126.449 40.7965C127.377 40.7965 128.206 40.9322 128.935 41.2034C129.658 41.4746 130.276 41.8724 130.788 42.3968C131.295 42.9152 131.684 43.5481 131.955 44.2955C132.22 45.0429 132.353 45.8897 132.353 46.836ZM132 39.0556L118.954 39.0556L118.954 29.8517L121.991 29.8517L121.991 35.2221L124.107 35.2221L124.107 30.1862L126.856 30.1862L126.856 35.2221L128.962 35.2221L128.962 29.8517L132 29.8517L132 39.0556ZM132 27.6767L118.954 27.6767L118.954 24.6841L126.801 18.744L125.445 21.4745L125.445 19.6029L118.954 19.6029L118.954 15.9774L132 15.9774L132 18.9339L124.044 24.9011L125.409 22.1706L125.409 24.0422L132 24.0422L132 27.6767ZM132.353 7.74489C132.353 9.08298 132.078 10.2372 131.53 11.2077C130.975 12.1781 130.186 12.9255 129.161 13.4499C128.13 13.9682 126.904 14.2274 125.481 14.2274L125.463 14.2274C124.041 14.2274 122.817 13.9682 121.793 13.4499C120.762 12.9255 119.972 12.1811 119.424 11.2167C118.875 10.2463 118.601 9.08901 118.601 7.74489C118.601 6.58762 118.83 5.56295 119.288 4.67089C119.74 3.77882 120.361 3.0706 121.151 2.54621C121.934 2.02182 122.826 1.73853 123.827 1.69634L124.035 1.6873L124.035 5.35801L123.926 5.36706C123.504 5.40322 123.128 5.52678 122.796 5.73774C122.465 5.94871 122.205 6.22597 122.019 6.56953C121.826 6.9131 121.729 7.30488 121.729 7.74489C121.729 8.2753 121.88 8.73339 122.181 9.11914C122.477 9.5049 122.902 9.80326 123.456 10.0142C124.011 10.2192 124.677 10.3216 125.454 10.3216L125.472 10.3216C126.25 10.3216 126.919 10.2192 127.479 10.0142C128.04 9.80326 128.471 9.5049 128.772 9.11914C129.074 8.73339 129.224 8.27229 129.224 7.73584C129.224 7.29584 129.134 6.91008 128.953 6.57857C128.766 6.24104 128.51 5.9698 128.185 5.76487C127.853 5.55391 127.47 5.4213 127.036 5.36706L126.91 5.34897L126.91 1.67826L127.091 1.6873C128.115 1.72949 129.022 2.00976 129.812 2.52813C130.602 3.04649 131.222 3.7517 131.675 4.64376C132.127 5.53582 132.353 6.56953 132.353 7.74489ZM148.353 91.7251C148.353 93.0632 148.078 94.2175 147.53 95.1879C146.975 96.1583 146.186 96.9057 145.161 97.4301C144.13 97.9485 142.904 98.2077 141.481 98.2077L141.463 98.2077C140.041 98.2077 138.817 97.9485 137.793 97.4301C136.762 96.9057 135.972 96.1613 135.424 95.1969C134.875 94.2265 134.601 93.0693 134.601 91.7251C134.601 90.5679 134.83 89.5432 135.288 88.6511C135.74 87.7591 136.361 87.0508 137.151 86.5265C137.934 86.0021 138.826 85.7188 139.827 85.6766L140.035 85.6675L140.035 89.3383L139.926 89.3473C139.504 89.3835 139.128 89.507 138.796 89.718C138.465 89.929 138.205 90.2062 138.019 90.5498C137.826 90.8933 137.729 91.2851 137.729 91.7251C137.729 92.2556 137.88 92.7136 138.181 93.0994C138.477 93.4852 138.902 93.7835 139.456 93.9945C140.011 94.1994 140.677 94.3019 141.454 94.3019L141.472 94.3019C142.25 94.3019 142.919 94.1994 143.479 93.9945C144.04 93.7835 144.471 93.4852 144.772 93.0994C145.074 92.7136 145.224 92.2525 145.224 91.7161C145.224 91.2761 145.134 90.8903 144.953 90.5588C144.766 90.2213 144.51 89.9501 144.185 89.7451C143.853 89.5342 143.47 89.4016 143.036 89.3473L142.91 89.3292L142.91 85.6585L143.091 85.6675C144.115 85.7097 145.022 85.99 145.812 86.5084C146.602 87.0267 147.222 87.7319 147.675 88.624C148.127 89.5161 148.353 90.5498 148.353 91.7251ZM148 85.2828L134.954 81.0244L134.954 77.6068L138.064 77.6068L138.064 78.7098L148 81.2504L148 85.2828ZM145.405 82.6066L142.702 81.7748L142.702 75.5997L145.405 74.7679L145.405 82.6066ZM148 75.9884L138.064 78.529L134.954 78.529L134.954 76.2145L148 71.9561L148 75.9884ZM148.353 65.3961C148.353 66.5233 148.196 67.4997 147.882 68.3255C147.563 69.1452 147.108 69.7871 146.517 70.2512C145.921 70.7093 145.203 70.9595 144.365 71.0017L144.185 71.0107L144.185 67.3762L144.257 67.3671C144.474 67.337 144.67 67.2375 144.845 67.0688C145.019 66.894 145.158 66.6619 145.261 66.3726C145.363 66.0772 145.414 65.7367 145.414 65.3509C145.414 64.9652 145.366 64.6367 145.27 64.3654C145.167 64.0882 145.028 63.8742 144.854 63.7235C144.673 63.5728 144.471 63.4975 144.248 63.4975L144.239 63.4975C143.925 63.4975 143.696 63.6452 143.552 63.9405C143.401 64.2359 143.259 64.7452 143.127 65.4685L142.883 66.7794C142.624 68.1718 142.165 69.1904 141.508 69.8354C140.845 70.4743 139.996 70.7937 138.959 70.7937L138.95 70.7937C138.064 70.7937 137.295 70.5617 136.644 70.0975C135.993 69.6334 135.49 69.0006 135.134 68.1989C134.779 67.3912 134.601 66.472 134.601 65.4413C134.601 64.278 134.773 63.3046 135.116 62.521C135.46 61.7375 135.942 61.1347 136.563 60.7128C137.178 60.2909 137.889 60.0438 138.697 59.9714L138.805 59.9624L138.805 63.4794L138.706 63.4975C138.465 63.5397 138.26 63.6452 138.091 63.8139C137.916 63.9767 137.78 64.1937 137.684 64.4649C137.588 64.7361 137.539 65.0465 137.539 65.3961C137.539 65.7457 137.588 66.0411 137.684 66.2822C137.774 66.5172 137.901 66.6951 138.064 66.8156C138.22 66.9362 138.398 66.9964 138.597 66.9964L138.606 66.9964C138.932 66.9964 139.182 66.8488 139.357 66.5534C139.531 66.2581 139.679 65.7849 139.8 65.1339L140.044 63.823C140.219 62.8887 140.466 62.1172 140.785 61.5084C141.105 60.8997 141.517 60.4476 142.024 60.1523C142.524 59.8509 143.139 59.7002 143.868 59.7002L143.877 59.7002C144.787 59.7002 145.577 59.9262 146.246 60.3783C146.915 60.8243 147.433 61.4723 147.801 62.3221C148.169 63.172 148.353 64.1967 148.353 65.3961ZM148 54.9576L137.991 54.9576L137.991 58.565L134.954 58.565L134.954 47.5076L137.991 47.5076L137.991 51.1241L148 51.1241L148 54.9576ZM165.353 79.415C165.353 80.7531 165.078 81.9074 164.53 82.8778C163.975 83.8482 163.186 84.5956 162.161 85.12C161.13 85.6384 159.904 85.8976 158.481 85.8976L158.463 85.8976C157.041 85.8976 155.817 85.6384 154.793 85.12C153.762 84.5956 152.972 83.8512 152.424 82.8868C151.875 81.9164 151.601 80.7591 151.601 79.415C151.601 78.2578 151.83 77.2331 152.288 76.341C152.74 75.449 153.361 74.7407 154.151 74.2164C154.934 73.692 155.826 73.4087 156.827 73.3665L157.035 73.3574L157.035 77.0282L156.926 77.0372C156.504 77.0734 156.128 77.1969 155.796 77.4079C155.465 77.6188 155.205 77.8961 155.019 78.2397C154.826 78.5832 154.729 78.975 154.729 79.415C154.729 79.9454 154.88 80.4035 155.181 80.7893C155.477 81.175 155.902 81.4734 156.456 81.6844C157.011 81.8893 157.677 81.9918 158.454 81.9918L158.472 81.9918C159.25 81.9918 159.919 81.8893 160.479 81.6844C161.04 81.4734 161.471 81.175 161.772 80.7893C162.074 80.4035 162.224 79.9424 162.224 79.406C162.224 78.966 162.134 78.5802 161.953 78.2487C161.766 77.9112 161.51 77.6399 161.185 77.435C160.853 77.224 160.47 77.0914 160.036 77.0372L159.91 77.0191L159.91 73.3484L160.091 73.3574C161.115 73.3996 162.022 73.6799 162.812 74.1983C163.602 74.7166 164.222 75.4218 164.675 76.3139C165.127 77.206 165.353 78.2397 165.353 79.415ZM165 72.9726L151.954 68.7143L151.954 65.2967L155.064 65.2967L155.064 66.3997L165 68.9403L165 72.9726ZM162.405 70.2965L159.702 69.4647L159.702 63.2895L162.405 62.4578L162.405 70.2965ZM165 63.6783L155.064 66.2189L151.954 66.2189L151.954 63.9043L165 59.646L165 63.6783ZM182.353 72.9209C182.353 74.0481 182.196 75.0245 181.882 75.8503C181.563 76.67 181.108 77.3119 180.517 77.776C179.921 78.2341 179.203 78.4843 178.365 78.5265L178.185 78.5355L178.185 74.9009L178.257 74.8919C178.474 74.8618 178.67 74.7623 178.845 74.5935C179.019 74.4188 179.158 74.1867 179.261 73.8974C179.363 73.602 179.414 73.2615 179.414 72.8757C179.414 72.49 179.366 72.1615 179.27 71.8902C179.167 71.613 179.028 71.399 178.854 71.2483C178.673 71.0976 178.471 71.0223 178.248 71.0223L178.239 71.0223C177.925 71.0223 177.696 71.17 177.552 71.4653C177.401 71.7606 177.259 72.27 177.127 72.9933L176.883 74.3042C176.624 75.6966 176.165 76.7152 175.508 77.3601C174.845 77.9991 173.996 78.3185 172.959 78.3185L172.95 78.3185C172.064 78.3185 171.295 78.0865 170.644 77.6223C169.993 77.1582 169.49 76.5253 169.134 75.7237C168.779 74.916 168.601 73.9968 168.601 72.9661C168.601 71.8028 168.773 70.8294 169.116 70.0458C169.46 69.2623 169.942 68.6595 170.563 68.2376C171.178 67.8157 171.889 67.5686 172.697 67.4962L172.805 67.4872L172.805 71.0042L172.706 71.0223C172.465 71.0645 172.26 71.17 172.091 71.3387C171.916 71.5015 171.78 71.7185 171.684 71.9897C171.588 72.2609 171.539 72.5713 171.539 72.9209C171.539 73.2705 171.588 73.5659 171.684 73.807C171.774 74.042 171.901 74.2198 172.064 74.3404C172.22 74.4609 172.398 74.5212 172.597 74.5212L172.606 74.5212C172.932 74.5212 173.182 74.3735 173.357 74.0782C173.531 73.7829 173.679 73.3097 173.8 72.6587L174.044 71.3478C174.219 70.4135 174.466 69.642 174.785 69.0332C175.105 68.4245 175.517 67.9724 176.024 67.677C176.524 67.3757 177.139 67.225 177.868 67.225L177.877 67.225C178.787 67.225 179.577 67.451 180.246 67.9031C180.915 68.3491 181.433 68.9971 181.801 69.8469C182.169 70.6968 182.353 71.7215 182.353 72.9209ZM198 74.8015L187.991 74.8015L187.991 78.4089L184.954 78.4089L184.954 67.3516L187.991 67.3516L187.991 70.968L198 70.968L198 74.8015Z" fill="url(#paint0_radial_397_88)"/>
<defs>
<radialGradient id="paint0_radial_397_88" cx="0" cy="0" r="1" gradientUnits="userSpaceOnUse" gradientTransform="translate(-71.1468 170.732) rotate(-22.1568) scale(362.13 580.149)">
<stop stop-color="#F17BF1"/>
<stop offset="0.298287" stop-color="#974DEF"/>
<stop offset="0.56091" stop-color="#1D0FEC"/>
<stop offset="0.760974" stop-color="#4878F4"/>
<stop offset="0.833443" stop-color="#0248BC"/>
<stop offset="0.951748" stop-color="#1152C8"/>
<stop offset="1" stop-color="#1077F5"/>
</radialGradient>
</defs>
</svg>
